<svg version="1.1" id="Layer_1" xmlns="http://www.w3.org/2000/svg" xmlns:xlink="http://www.w3.org/1999/xlink" x="0px" y="0px"
	 width="100%" viewBox="0 0 512 512" enable-background="new 0 0 512 512" xml:space="preserve">
<path fill="#000000" opacity="1.000000" stroke="none" 
	d="
M288.000000,513.000000 
	C267.312439,513.000000 246.624878,513.000000 225.234787,512.726929 
	C223.780182,512.135986 223.047302,511.602295 222.273071,511.533356 
	C213.342819,510.738342 204.640045,508.697662 195.950638,506.658051 
	C172.193756,501.081757 149.787231,492.042877 128.665848,479.852356 
	C101.038162,463.906647 77.376999,443.290771 57.227776,418.619476 
	C42.131508,400.135193 29.842680,379.948395 20.555834,357.927338 
	C13.248615,340.600403 7.841944,322.755463 4.404451,304.249847 
	C3.459070,299.160461 3.925577,293.669525 1.000000,289.000000 
	C1.000000,267.979095 1.000000,246.958206 1.283784,225.239349 
	C2.563437,219.548035 3.655799,214.571701 4.539479,209.558594 
	C10.174382,177.591797 21.867941,147.985855 39.045902,120.490341 
	C52.889584,98.331764 70.033401,79.102989 89.716385,61.945164 
	C113.182274,41.489754 139.608246,26.269726 168.690353,15.445489 
	C188.841949,7.945147 209.793243,3.930366 231.000000,1.000000 
	C249.687561,1.000000 268.375122,1.000000 287.747192,1.265318 
	C289.189331,2.263051 290.105499,2.530369 291.147522,2.592283 
	C301.435089,3.203553 311.438568,5.611889 321.321686,8.186915 
	C351.646271,16.087931 379.661255,29.130651 405.337006,47.159065 
	C423.812286,60.131645 440.244080,75.358124 454.679199,92.646400 
	C469.869843,110.839554 482.160492,130.946564 491.788666,152.603867 
	C497.994690,166.563477 502.914093,180.981247 506.529419,195.874191 
	C509.583313,208.454269 511.429596,221.192474 513.000000,234.000000 
	C513.000000,249.020889 513.000000,264.041779 512.981506,279.933228 
	C511.624268,289.961212 510.696320,299.201477 508.871216,308.260956 
	C502.986389,337.472046 492.286255,364.831787 476.864166,390.387543 
	C461.769958,415.399841 442.606293,436.926422 420.336639,455.549500 
	C402.604767,470.377777 383.035339,482.515564 361.690704,491.818237 
	C343.190765,499.881104 324.177307,505.825836 304.375092,509.582245 
	C298.913361,510.618286 293.144958,510.405365 288.000000,513.000000 
M208.573334,29.355000 
	C207.121735,29.707464 205.674057,30.077147 204.217941,30.409883 
	C164.979065,39.376476 130.529297,57.741283 100.751198,84.544449 
	C76.903099,106.010025 58.371952,131.584091 45.031391,160.918015 
	C33.496586,186.281357 26.341454,212.805069 24.628941,240.502548 
	C23.648584,256.358429 23.846796,272.338898 26.135189,288.278198 
	C29.563078,312.154297 36.138248,334.977905 46.474220,356.701935 
	C61.244053,387.744965 81.947540,414.173767 108.364998,436.251068 
	C127.295876,452.071777 148.156174,464.533356 171.019409,473.578766 
	C200.123505,485.093262 230.230865,491.085480 261.728363,489.755371 
	C273.192657,489.271271 284.574493,488.606262 295.871582,486.632568 
	C328.730194,480.891937 359.007294,468.733032 386.708069,450.142883 
	C407.453094,436.220703 425.463806,419.310181 440.806244,399.669739 
	C453.328918,383.639008 463.798218,366.266937 471.515259,347.387299 
	C480.603729,325.152374 486.927643,302.243347 488.827728,278.128540 
	C490.666199,254.795944 489.879395,231.672867 484.898590,208.816772 
	C479.454071,183.832626 470.344391,160.251297 457.158569,138.225311 
	C442.475159,113.697701 423.927307,92.634491 401.654877,74.830276 
	C382.430573,59.462719 361.159454,47.720783 338.110474,39.026615 
	C318.095612,31.476933 297.520599,27.013535 276.215179,25.191896 
	C253.698029,23.266653 231.477020,24.609909 208.573334,29.355000 
z"/>
<path fill="#000000" opacity="1.000000" stroke="none" 
	d="
M256.077057,210.907379 
	C244.092453,240.021423 232.250519,268.894867 220.380875,297.756927 
	C214.509995,312.032471 208.648880,326.312622 202.661301,340.539307 
	C200.013611,346.830322 194.781281,349.982452 189.526474,348.844269 
	C182.885971,347.405975 178.626175,343.139404 179.022324,337.441498 
	C179.418137,331.748444 182.202118,326.653290 184.328369,321.444397 
	C195.813507,293.308380 207.341766,265.189819 218.920166,237.092041 
	C227.651917,215.902283 236.464859,194.745895 245.278397,173.589981 
	C247.611099,167.990601 252.473511,164.295715 257.320801,164.771362 
	C262.922302,165.321014 266.404388,168.419983 268.646851,173.802963 
	C285.378052,213.966080 302.323944,254.039825 319.218597,294.134796 
	C324.055389,305.613586 328.920715,317.080475 333.818451,328.533417 
	C337.587738,337.347687 335.072540,344.913818 327.455017,347.451782 
	C322.077362,349.243500 315.064972,346.354858 312.783447,341.120667 
	C306.285767,326.213898 299.846985,311.280304 293.554047,296.286346 
	C292.163116,292.972229 290.416290,291.227264 286.557220,291.333588 
	C278.233978,291.562866 269.897614,291.277771 261.570679,291.428253 
	C257.996094,291.492828 256.392914,290.336578 256.588226,286.564453 
	C256.820496,282.078400 256.837799,277.559998 256.583771,273.076263 
	C256.354523,269.029755 257.736938,267.373810 261.951935,267.564880 
	C268.041321,267.840973 274.152527,267.635529 280.873718,267.635529 
	C278.475128,258.958557 274.763367,251.758041 271.753021,244.305954 
	C267.280060,233.233170 262.571503,222.255280 257.894073,211.266449 
	C257.720093,210.857727 257.753845,207.979675 256.077057,210.907379 
z"/>
</svg>